<svg data-v-fde0c5aa="" xmlns="http://www.w3.org/2000/svg" viewBox="0 0 300 300" class="iconLeft"><!----><defs data-v-fde0c5aa=""><!----></defs><rect data-v-fde0c5aa="" fill="transparent" x="0" y="0" width="300px" height="300px" class="logo-background-square"></rect><defs data-v-fde0c5aa=""><!----></defs><g data-v-fde0c5aa="" id="cbe0ff35-c145-44e8-a3db-b8ab95b5562e" fill="#000000" transform="matrix(5.380816383168354,0,0,5.380816383168354,168.25708862087646,97.91369705172208)"><path d="M4.48 5.09L4.48 5.09L4.48 5.09Q4.22 5.24 3.91 5.32L3.91 5.32L3.91 5.32Q3.60 5.40 3.36 5.40L3.36 5.40L3.36 5.40Q3.12 5.40 2.94 5.34L2.94 5.34L2.94 5.34Q2.75 5.28 2.61 5.17L2.61 5.17L2.61 5.17Q2.32 4.94 2.32 4.60L2.32 4.60L2.32 4.60Q2.32 4.27 2.43 4.03L2.43 4.03L2.43 4.03Q2.54 3.80 2.75 3.64L2.75 3.64L2.75 3.64Q3.19 3.28 4.01 3.28L4.01 3.28L4.01 3.28Q4.79 3.28 5.03 3.91L5.03 3.91L5.03 3.91Q5.11 4.09 5.11 4.31L5.11 4.31L5.11 4.31Q5.11 4.53 4.93 4.74L4.93 4.74L4.93 4.74Q4.75 4.94 4.48 5.09ZM1.22 12.60L1.22 12.60L1.22 12.60Q1.00 13.43 0.83 14.08L0.83 14.08L0.83 14.08Q0.65 14.72 0.43 15.17L0.43 15.17L0.43 15.17Q0.22 15.61-0.08 15.85L-0.08 15.85L-0.08 15.85Q-0.38 16.08-0.75 16.08L-0.75 16.08L-0.75 16.08Q-1.11 16.08-1.34 16.00L-1.34 16.00L-1.34 16.00Q-1.57 15.91-1.74 15.79L-1.74 15.79L-1.74 15.79Q-2.10 15.54-2.22 15.22L-2.22 15.22L-2.22 15.22Q-1.69 14.80 0.51 10.43L0.51 10.43L0.51 10.43Q1.74 7.96 2.30 6.97L2.30 6.97L2.30 6.97Q2.54 6.56 2.91 6.56L2.91 6.56L2.91 6.56Q3.12 6.56 3.39 6.70L3.39 6.70L3.39 6.70Q2.39 8.69 1.71 10.90L1.71 10.90L1.71 10.90Q3.04 10.66 4.21 9.65L4.21 9.65L4.21 9.65Q4.57 9.34 4.80 9.00L4.80 9.00L4.80 9.00Q5.11 8.98 5.11 9.25L5.11 9.25L5.11 9.25Q5.11 9.36 4.94 9.76L4.94 9.76L4.94 9.76Q4.77 10.17 4.36 10.69L4.36 10.69L4.36 10.69Q3.95 11.22 3.45 11.61L3.45 11.61L3.45 11.61Q2.45 12.38 1.22 12.60ZM6.14 12.39L6.14 12.39L6.14 12.39Q6.14 12.66 5.68 12.66L5.68 12.66L5.68 12.66Q5.01 12.66 4.50 12.25L4.50 12.25L4.50 12.25Q3.89 11.76 3.89 10.89L3.89 10.89L3.89 10.89Q3.89 9.73 4.87 8.38L4.87 8.38L4.87 8.38Q5.78 7.13 6.77 6.65L6.77 6.65L6.77 6.65Q6.93 6.58 7.06 6.58L7.06 6.58L7.06 6.58Q7.20 6.58 7.29 6.58L7.29 6.58L7.29 6.58Q7.51 6.60 7.62 6.75L7.62 6.75L7.62 6.75Q7.21 7.60 6.90 8.46L6.90 8.46L6.90 8.46Q7.72 7.70 8.91 7.16L8.91 7.16L8.91 7.16Q10.14 6.59 11.13 6.59L11.13 6.59L11.13 6.59Q11.58 6.59 11.58 7.14L11.58 7.14L11.58 7.14Q11.58 7.51 11.39 8.13L11.39 8.13L11.39 8.13Q12.53 7.08 13.91 6.71L13.91 6.71L13.91 6.71Q14.38 6.59 14.75 6.59L14.75 6.59L14.75 6.59Q15.13 6.59 15.26 6.70L15.26 6.70L15.26 6.70Q15.40 6.80 15.42 6.98L15.42 6.98L15.42 6.98Q15.44 7.16 15.37 7.41L15.37 7.41L15.37 7.41Q15.30 7.65 15.18 7.92L15.18 7.92L15.18 7.92Q15.05 8.20 14.90 8.48L14.90 8.48L14.90 8.48Q14.75 8.77 14.62 9.04L14.62 9.04L14.62 9.04Q14.31 9.68 14.31 9.98L14.31 9.98L14.31 9.98Q14.31 10.54 14.92 10.54L14.92 10.54L14.92 10.54Q15.65 10.54 16.34 9.56L16.34 9.56L16.34 9.56Q16.55 9.28 16.74 9.00L16.74 9.00L16.74 9.00Q16.92 8.98 16.98 9.06L16.98 9.06L16.98 9.06Q17.05 9.15 17.05 9.25L17.05 9.25L17.05 9.25Q17.05 9.34 16.96 9.56L16.96 9.56L16.96 9.56Q16.88 9.77 16.71 10.10L16.71 10.10L16.71 10.10Q16.54 10.44 16.31 10.79L16.31 10.79L16.31 10.79Q16.08 11.15 15.78 11.49L15.78 11.49L15.78 11.49Q15.48 11.84 15.10 12.11L15.10 12.11L15.10 12.11Q14.26 12.71 13.25 12.71L13.25 12.71L13.25 12.71Q12.16 12.71 11.79 11.92L11.79 11.92L11.79 11.92Q11.66 11.67 11.66 11.30L11.66 11.30L11.66 11.30Q11.66 10.93 11.81 10.51L11.81 10.51L11.81 10.51Q11.96 10.10 12.17 9.71L12.17 9.71L12.17 9.71Q12.38 9.32 12.62 8.99L12.62 8.99L12.62 8.99Q12.85 8.65 13.03 8.41L13.03 8.41L13.03 8.41Q13.21 8.16 13.28 8.02L13.28 8.02L13.28 8.02Q13.36 7.88 13.25 7.88L13.25 7.88L13.25 7.88Q12.77 7.88 12.02 8.46L12.02 8.46L12.02 8.46Q11.29 9.02 10.81 9.73L10.81 9.73L10.81 9.73Q10.10 11.59 10.10 12.20L10.10 12.20L10.10 12.20Q10.10 12.33 10.11 12.41L10.11 12.41L10.11 12.41Q10.12 12.50 10.08 12.55L10.08 12.55L10.08 12.55Q10.03 12.61 9.95 12.63L9.95 12.63L9.95 12.63Q9.62 12.76 9.18 12.67L9.18 12.67L9.18 12.67Q8.74 12.57 8.50 12.40L8.50 12.40L8.50 12.40Q7.96 12.02 7.96 11.15L7.96 11.15L7.96 11.15Q7.96 9.97 9.24 8.33L9.24 8.33L9.24 8.33Q9.62 7.83 9.58 7.83L9.58 7.83L9.58 7.83Q9.05 7.83 8.02 8.49L8.02 8.49L8.02 8.49Q6.95 9.18 6.47 9.89L6.47 9.89L6.47 9.89Q6.17 11.12 6.14 12.39Z"></path></g><defs data-v-fde0c5aa=""><linearGradient data-v-fde0c5aa="" gradientTransform="rotate(25)" id="b15ee3b0-764a-4745-b004-1d66540f4583" x1="0%" y1="0%" x2="100%" y2="0%"><stop data-v-fde0c5aa="" offset="0%" stop-color="#41E296" stop-opacity="1"></stop><stop data-v-fde0c5aa="" offset="100%" stop-color="#00C4EE" stop-opacity="1"></stop></linearGradient></defs><g data-v-fde0c5aa="" id="5b672728-0ec0-4d07-8008-28e72fa41243" stroke="none" fill="url(#b15ee3b0-764a-4745-b004-1d66540f4583)" transform="matrix(5.1655838048148155,0,0,5.1655838048148155,40,98.34416195185185)"><path d="M15.2 11.2l-5.5 5.5c-.9.9-2 1.3-3.2 1.3-1.2 0-2.3-.5-3.2-1.3-.9-.9-1.3-2-1.3-3.2 0-1.2.5-2.3 1.3-3.2l7.6-7.6c.4-.4.4-1 0-1.4-.4-.4-1-.4-1.4 0L1.9 8.9C.7 10.1 0 11.8 0 13.5s.7 3.4 1.9 4.6C3.1 19.3 4.8 20 6.5 20s3.4-.7 4.6-1.9l5.5-5.5c.4-.4.4-1 0-1.4-.4-.4-1-.4-1.4 0z"></path><circle cx="6.5" cy="13.5" r="3.5"></circle><path d="M10.7 6.3c-.4-.4-1-.4-1.4 0l-1 1c-.4.4-.4 1 0 1.4.2.2.7.5 1.4 0l1-1c.4-.4.4-1 0-1.4zM17.3 5.3l-1 1c-.4.4-.4 1 0 1.4.2.2.7.5 1.4 0l1-1c.4-.4.4-1 0-1.4-.4-.4-1-.4-1.4 0zM11.3 11.7c.2.2.8.5 1.4 0l2-2c.4-.4.4-1 0-1.4-.4-.4-1-.4-1.4 0l-2 2c-.4.4-.4 1 0 1.4zM19.7.3c-.4-.4-1-.4-1.4 0l-1 1c-.4.4-.4 1 0 1.4.2.2.7.6 1.4 0l1-1c.4-.4.4-1 0-1.4zM13.7 5.7l2-2c.4-.4.4-1 0-1.4-.4-.4-1-.4-1.4 0l-2 2c-.4.4-.4 1 0 1.4.2.2.7.6 1.4 0z"></path></g><!----></svg>